<?xml version="1.0" standalone="no"?>
<!DOCTYPE svg PUBLIC "-//W3C//DTD SVG 20010904//EN"
 "http://www.w3.org/TR/2001/REC-SVG-20010904/DTD/svg10.dtd">
<svg version="1.0" xmlns="http://www.w3.org/2000/svg"
 width="130.000000pt" height="130.000000pt" viewBox="0 0 130.000000 130.000000"
 preserveAspectRatio="xMidYMid meet">
<metadata>
Created by potrace 1.11, written by Peter Selinger 2001-2013
</metadata>
<g transform="translate(0.000000,130.000000) scale(0.100000,-0.100000)"
fill="#000000" stroke="none">
<path d="M0 650 l0 -650 650 0 650 0 0 650 0 650 -650 0 -650 0 0 -650z m413
167 c19 -51 25 -84 21 -109 -5 -25 -1 -43 10 -59 26 -38 16 -101 -20 -122 -8
-4 -14 -17 -14 -28 0 -11 5 -17 10 -14 6 3 10 -1 10 -9 0 -9 -7 -16 -15 -16
-8 0 -15 -9 -15 -20 0 -19 -7 -20 -90 -20 -64 0 -92 4 -95 13 -3 6 -13 80 -24
163 -20 164 -22 147 24 282 3 8 30 12 88 12 l84 0 26 -73z m180 -135 c10 -1
17 -10 17 -24 0 -20 -1 -20 -18 -5 -10 10 -28 17 -40 17 -18 0 -22 -6 -22 -30
0 -23 4 -30 20 -30 11 0 20 5 20 10 0 6 5 10 10 10 6 0 10 -16 10 -35 0 -19
-4 -35 -10 -35 -5 0 -10 7 -10 15 0 8 -9 15 -21 15 -17 0 -20 -5 -17 -32 4
-43 42 -52 70 -16 l18 23 0 -27 c0 -28 0 -28 -72 -28 -56 0 -69 3 -60 12 15
15 16 148 2 148 -5 0 -10 3 -10 8 0 6 66 9 113 4z m135 2 c17 -5 22 -13 22
-38 l-1 -31 -15 28 c-11 20 -22 27 -37 25 -33 -5 -33 -36 0 -50 43 -18 63 -39
63 -64 0 -34 -37 -55 -83 -47 -34 5 -37 9 -37 37 l0 31 23 -29 c27 -33 60 -33
65 2 3 16 -4 25 -25 33 -35 13 -63 38 -63 56 0 17 36 53 53 53 6 0 22 -3 35
-6z m114 -16 c-14 -14 -16 -58 -3 -58 15 0 54 54 42 58 -22 7 -1 19 27 14 l29
-4 -39 -36 -39 -37 44 -47 c43 -47 43 -48 18 -48 -19 0 -34 12 -56 43 l-30 42
-3 -28 c-2 -16 2 -35 9 -43 10 -12 5 -14 -27 -13 -22 0 -33 3 -26 6 8 3 12 29
12 79 0 52 -4 74 -12 75 -7 1 3 5 22 8 41 8 48 5 32 -11z m249 -7 c37 -38 39
-88 5 -127 -51 -60 -146 -20 -146 62 0 44 45 94 85 94 16 0 38 -12 56 -29z
m-591 -186 c0 -18 -20 -20 -21 -2 0 10 -2 10 -6 0 -6 -17 -33 -17 -33 0 0 7
13 14 30 15 21 2 30 -2 30 -13z m61 -5 c6 0 7 5 4 10 -3 6 1 10 10 10 10 0 13
-5 9 -12 -6 -10 -5 -10 7 -1 20 16 159 16 159 0 0 -7 4 -6 10 3 8 12 10 12 10
1 0 -10 3 -11 14 -2 10 9 15 8 20 -4 4 -12 -4 -15 -44 -15 -33 0 -50 4 -51 13
0 10 -2 10 -6 0 -6 -15 -73 -18 -73 -3 0 6 -5 10 -11 10 -5 0 -7 -4 -4 -10 4
-6 -11 -10 -39 -10 -39 0 -44 3 -39 17 4 11 8 12 11 5 2 -7 8 -12 13 -12z
m306 5 c0 -18 -17 -20 -18 -2 0 10 -2 10 -6 0 -7 -18 -23 -16 -23 2 0 9 9 15
23 15 14 0 24 -6 24 -15z m113 4 c0 -8 5 -8 15 1 12 10 15 10 16 -1 0 -10 2
-11 6 -1 7 17 23 15 23 -4 0 -12 -13 -15 -78 -13 -59 1 -79 5 -79 15 0 10 15
14 49 14 29 0 48 -4 48 -11z m99 -1 c11 -10 13 -10 7 0 -4 7 -1 12 8 12 9 0
16 -7 16 -15 0 -11 -9 -15 -30 -13 -17 1 -30 8 -30 15 0 16 12 17 29 1z"/>
<path d="M237 853 c-2 -5 -12 -31 -21 -60 -16 -48 -16 -60 -1 -175 24 -186 14
-168 93 -167 37 1 55 4 40 6 -16 2 -28 10 -28 16 0 8 -3 8 -9 -1 -7 -11 -9
-11 -14 2 -5 13 2 16 38 16 25 0 45 5 45 10 0 6 -21 10 -47 11 -27 0 -42 3
-35 6 8 3 12 29 12 78 0 49 -4 75 -12 78 -15 6 33 11 74 8 39 -3 46 41 17 119
l-22 60 -63 0 c-34 0 -65 -3 -67 -7z"/>
<path d="M342 598 c2 -59 6 -73 20 -76 13 -3 18 7 23 45 13 96 13 98 -18 101
l-28 3 3 -73z"/>
<path d="M416 584 c-4 -14 -5 -28 -3 -31 3 -2 8 8 11 23 4 14 5 28 3 31 -3 2
-8 -8 -11 -23z"/>
<path d="M1001 656 c-19 -22 -23 -78 -9 -106 10 -18 22 -25 43 -25 36 0 58 35
51 83 -6 43 -22 62 -51 62 -12 0 -28 -6 -34 -14z"/>
</g>
</svg>
