<?xml version="1.0" encoding="utf-8"?>
<!-- Generator: Adobe Illustrator 24.2.1, SVG Export Plug-In . SVG Version: 6.00 Build 0)  -->
<svg version="1.1" id="Warstwa_1" xmlns="http://www.w3.org/2000/svg" xmlns:xlink="http://www.w3.org/1999/xlink" x="0px" y="0px"
	 viewBox="0 0 30 30" style="enable-background:new 0 0 30 30;" xml:space="preserve">
<style type="text/css">
	.st0{fill:#FFFFFF;}
</style>
<g>
	<path class="st0" d="M15,1.5c3.83,0,6.5,7.11,6.5,13.5c0,6.39-2.67,13.5-6.5,13.5c-3.83,0-6.5-7.11-6.5-13.5
		C8.5,8.61,11.17,1.5,15,1.5 M15,0c-4.42,0-8,6.72-8,15s3.58,15,8,15c4.42,0,8-6.72,8-15S19.42,0,15,0z"/>
	<polyline class="st0" points="0,15.75 30,15.75 30,14.25 0,14.25 	"/>
	<polyline class="st0" points="14.25,0 14.25,30 15.75,30 15.75,0 	"/>
	<path class="st0" d="M15,1.5c7.44,0,13.5,6.06,13.5,13.5c0,7.44-6.06,13.5-13.5,13.5C7.56,28.5,1.5,22.44,1.5,15
		C1.5,7.56,7.56,1.5,15,1.5 M15,0C6.72,0,0,6.72,0,15s6.72,15,15,15s15-6.72,15-15S23.28,0,15,0z"/>
	<path class="st0" d="M15,8.5c6.39,0,13.5,2.67,13.5,6.5c0,3.83-7.11,6.5-13.5,6.5c-6.39,0-13.5-2.67-13.5-6.5
		C1.5,11.17,8.61,8.5,15,8.5 M15,7C6.72,7,0,10.58,0,15c0,4.42,6.72,8,15,8s15-3.58,15-8C30,10.58,23.28,7,15,7z"/>
</g>
</svg>
