<?xml version="1.0" encoding="utf-8"?>
<!-- Generator: Adobe Illustrator 24.2.1, SVG Export Plug-In . SVG Version: 6.00 Build 0)  -->
<svg version="1.1" id="Layer_1" xmlns="http://www.w3.org/2000/svg" xmlns:xlink="http://www.w3.org/1999/xlink" x="0px" y="0px"
	 viewBox="0 0 512 512" style="enable-background:new 0 0 512 512;" xml:space="preserve">
<style type="text/css">
	.st0{fill:#FFFFFF;}
	.st1{fill:#828282;}
</style>
<g>
	<path class="st0" d="M256,507.5c-34.1,0-67-6.6-97.9-19.7c-30.1-12.7-57-30.8-80-53.8c-23.2-23.3-41.3-50.2-53.9-80
		c-13.1-31-19.7-64-19.7-97.9c0-34,6.6-66.9,19.7-97.9c12.9-30.4,31-57.3,53.8-80c23.3-23.2,50.2-41.3,80-53.9
		c31-13.1,64-19.7,97.9-19.7c34,0,66.9,6.6,97.9,19.7c30.4,12.9,57.3,31,80,53.8c23.2,23.3,41.3,50.2,53.9,80
		c13.1,31,19.7,64,19.7,97.9c0,34.1-6.6,67-19.7,97.9c-12.7,30.1-30.8,57-53.8,80c-23.3,23.2-50.2,41.3-80,53.9
		C322.9,500.9,290,507.5,256,507.5z M266,476l6.2-7.6c22.1-27.2,39.6-57.3,52.1-89.5l1.5-3.9l-4.1-0.8c-16.7-3.4-34.2-5.4-52.2-6.2
		l-3.6-0.1V476z M242.5,367.8c-17.1,0.6-34.7,2.7-52.4,6.2l-4.1,0.8l1.5,3.9c12.8,32.4,30.4,62.5,52.3,89.5l6.2,7.6V367.7
		L242.5,367.8z M344.2,382.6c-11.7,30.8-27.5,59.6-46.9,85.8l-5.4,7.3l8.9-1.8c20.3-4.1,40.3-11.2,59.3-21.2
		c20-10.6,38.3-24.2,54.4-40.5l3.3-3.4l-4.2-2.2c-21-11-42.9-19.8-65.2-26.1l-3.1-0.9L344.2,382.6z M163.4,380.4
		c-22.3,6.3-44.1,15.1-65,26.1l-4.2,2.2l3.3,3.4c16.2,16.3,34.5,29.9,54.3,40.4c18.6,9.9,38.5,17.1,59.2,21.2l9,1.8l-5.5-7.3
		c-19.7-26.5-35.5-55.3-47-85.6l-1.1-3L163.4,380.4z M34,269.6c1.4,22.3,6.1,44.1,13.8,64.7c7.5,20.1,18.1,39.1,31.5,56.6l1.8,2.4
		l2.6-1.5c22.6-12.5,47.2-22.7,73-30.2l3.4-1l-1-3.4c-8.4-28.6-13.3-58.2-14.4-88l-0.1-3.4H33.8L34,269.6z M366.9,269.3
		c-1.1,29.9-5.9,59.4-14.4,87.9l-1,3.4l3.4,1c25.7,7.5,50.3,17.7,73.2,30.3l2.6,1.5l1.8-2.4c27-35.2,42.7-77.2,45.2-121.3l0.2-3.7
		H367L366.9,269.3z M164.8,269.5c1.1,28.4,5.7,56.4,13.7,83.3l0.9,3.1l3.1-0.6c20.3-4.2,40.5-6.6,60.1-7.3l3.4-0.1v-81.9h-81.4
		L164.8,269.5z M265.9,269.4v78.4l3.4,0.1c20,0.8,40.1,3.3,59.9,7.3l3.1,0.6l0.9-3.1c8.1-27,12.7-55,13.8-83.3l0.1-3.6H266
		L265.9,269.4z M178.6,159.2c-8.1,26.9-12.7,54.9-13.8,83.3l-0.1,3.6h81.5v-81.9l-3.4-0.1c-20.1-0.7-40.3-3.2-60.1-7.3l-3.1-0.7
		L178.6,159.2z M79.3,121.1c-13.4,17.6-24,36.7-31.5,56.7C40,198.6,35.3,220.3,34,242.3l0,0.1v3.7h110.7l0.1-3.4
		c1.1-29.8,5.9-59.4,14.4-88l1-3.4l-3.4-1c-24.9-7.1-49.5-17.3-73-30.2l-2.6-1.5L79.3,121.1z M428.3,120
		c-23.2,12.8-47.8,23-73.2,30.3l-3.4,1l1,3.4c8.4,28.8,13.2,58.4,14.3,88l0.1,3.4h111.1l-0.2-3.7c-2.6-44.1-18.3-86.1-45.2-121.3
		l-1.8-2.4L428.3,120z M266.1,246h81.2l-0.1-3.6c-1.1-28-5.8-56-13.8-83.2l-0.9-3.1l-3.2,0.7c-19.8,4.2-39.9,6.6-59.9,7.3l0.1,7
		l-3.4-3.5V246z M239.9,43.7c-22.1,27-39.7,57.2-52.4,89.5l-1.5,3.9l4.1,0.8c17.6,3.5,35.2,5.6,52.3,6.3l3.6,0.1V36.1L239.9,43.7z
		 M266,144.3l3.6-0.1c17.3-0.7,34.9-2.8,52.1-6.2l4.1-0.8l-1.5-3.9c-12.5-32.2-30.1-62.4-52.1-89.5l-6.2-7.6V144.3z M297.2,43.7
		c19.5,26.3,35.3,55.2,46.9,85.9l1.1,3l3.1-0.9c22.6-6.5,44.5-15.2,65.1-26.1l4.2-2.2l-3.3-3.4c-16-16.3-34.2-29.9-54.3-40.5
		c-18.8-10-38.8-17.2-59.4-21.3l-8.9-1.8L297.2,43.7z M211.1,38.2c-20.7,4.2-40.6,11.3-59.3,21.2c-20.1,10.7-38.3,24.3-54.2,40.4
		l-3.3,3.3l4.1,2.2c20.5,10.9,42.4,19.7,65,26.1l3.1,0.9l1.1-3c11.4-30.2,27.1-59.1,46.9-85.6l5.5-7.3L211.1,38.2z"/>
	<path class="st1" d="M256,8c33.5,0,66,6.5,96.6,19.4c30,12.8,56.5,30.6,78.9,53.1c22.9,23,40.7,49.5,53.1,78.9
		C497.5,190,504,222.5,504,256c0,33.6-6.5,66.1-19.5,96.6c-12.5,29.7-30.4,56.2-53.1,78.9c-23,22.9-49.5,40.7-78.9,53.1
		C322,497.5,289.5,504,256,504c-33.6,0-66.1-6.5-96.6-19.5c-29.7-12.5-56.2-30.4-78.9-53.1c-22.9-23-40.7-49.5-53.1-78.9
		C14.5,322,8,289.5,8,256s6.5-66,19.4-96.6c12.8-30,30.6-56.5,53.1-78.9c23-22.9,49.5-40.7,78.9-53.1C190,14.5,222.5,8,256,8
		 M249.6,148v-7.3V45.9V26.3l-12.4,15.2c-22.3,27.3-40.1,57.8-52.9,90.5l-3,7.8l8.2,1.6c17.7,3.5,35.5,5.6,52.9,6.3L249.6,148
		 M262.5,148l7.3-0.3c17.5-0.7,35.2-2.8,52.7-6.2l8.2-1.6l-3-7.8c-12.6-32.6-30.4-63-52.7-90.5l-12.4-15.3V46v94.7V148 M168.7,136.6
		l2.3-6c11.2-29.9,26.9-58.5,46.5-84.8l10.9-14.7l-17.9,3.6c-21,4.2-41.3,11.5-60.2,21.6C129.8,67.2,111.3,81,95.1,97.4l-6.6,6.7
		l8.3,4.4c20.8,11,42.9,19.9,65.7,26.4L168.7,136.6 M343.1,136.8l6.2-1.8c22.9-6.5,45-15.4,65.7-26.3l8.3-4.4l-6.6-6.7
		c-16.2-16.5-34.8-30.4-55.1-41.2c-19.1-10.2-39.4-17.5-60.3-21.7l-17.8-3.6l10.8,14.6c19.3,26,34.9,54.6,46.5,85L343.1,136.8
		 M363.8,249.5h6.7h104h7.4l-0.4-7.4c-2.7-44.8-18.6-87.4-45.9-123.2l-3.7-4.8l-5.3,2.9c-22.9,12.7-47.3,22.8-72.4,30l-6.8,1.9
		l2,6.7c8.3,28.6,13.1,57.9,14.1,87.1L363.8,249.5 M30.5,249.6h7h103.8h6.8l0.2-6.7c1.1-29.5,5.9-58.8,14.2-87.2l2-6.8l-6.8-1.9
		c-24.7-7.1-49-17.1-72.3-29.9l-5.3-2.9l-3.7,4.8c-13.6,17.9-24.4,37.3-32,57.6c-8,21.1-12.7,43.2-14,65.6l0,0.2v0.2v0.1V249.6
		 M269.4,167.6h-6.8v74.9v7h7h74.1h7.3l-0.3-7.3c-1.1-28.3-5.8-56.6-14-84l-1.8-6.2l-6.3,1.3c-19.6,4.1-39.5,6.6-59.3,7.3
		L269.4,167.6 M161,249.6h7.3h74.4h7v-7v-75v-6.8l-6.8-0.2c-19.9-0.7-39.9-3.1-59.5-7.3l-6.3-1.3l-1.9,6.2
		c-8.2,27.1-12.9,55.5-14,84.1L161,249.6 M431.7,397.8l3.7-4.8c27.5-35.8,43.4-78.4,45.9-123.3l0.4-7.4h-7.4H370.4h-6.7l-0.2,6.7
		c-1.1,29.6-5.9,58.9-14.2,87.1l-2,6.7l6.7,2c25.4,7.4,49.8,17.5,72.5,30L431.7,397.8 M334.8,359.9l1.8-6.1
		c8.2-27.2,12.9-55.6,14-84.1l0.3-7.3h-7.3h-74.1h-0.1h-7v7v75v6.7l6.7,0.3c19.8,0.8,39.8,3.2,59.4,7.3L334.8,359.9 M177,360
		l6.3-1.3c20.1-4.1,40.1-6.6,59.5-7.3l6.8-0.2v-6.8v-75v-7h-7h-74.3H161l0.3,7.3c1.1,28.7,5.8,57,13.9,84.1L177,360 M80.2,397.9
		l5.3-2.9c22.4-12.4,46.7-22.5,72.3-29.9l6.7-2l-2-6.7c-8.4-28.3-13.1-57.7-14.2-87.2l-0.2-6.7h-6.7H37.5H30l0.5,7.4
		c1.5,22.7,6.2,44.8,14,65.7c7.6,20.4,18.4,39.7,32,57.5L80.2,397.9 M249.6,485.7V466v-94.7v-7.2l-7.2,0.3
		c-17.2,0.6-35,2.7-52.9,6.2l-8.2,1.6l3.1,7.8c12.9,32.7,30.7,63.2,52.9,90.5L249.6,485.7 M262.5,485.8l12.4-15.3
		c22.3-27.5,40-57.9,52.7-90.5l3-7.7l-8.1-1.6c-16.8-3.4-34.6-5.5-52.7-6.2l-7.3-0.3v7.3v94.7V485.8 M228.4,480.8l-10.9-14.7
		c-19.5-26.2-35.2-54.8-46.6-84.8l-2.3-6l-6.2,1.8c-22.5,6.4-44.6,15.3-65.7,26.3l-8.4,4.4l6.7,6.7c16.4,16.5,35,30.3,55.2,41
		c18.9,10.1,39.2,17.3,60.2,21.6L228.4,480.8 M283.6,480.9l17.9-3.6c20.7-4.2,40.9-11.4,60.3-21.6c20.3-10.7,38.8-24.6,55.2-41.2
		l6.6-6.7l-8.4-4.4c-21.2-11.1-43.4-20-65.8-26.3l-6.2-1.7l-2.3,6c-11.6,30.5-27.2,59-46.5,84.9L283.6,480.9 M256,1
		c-34.4,0-67.8,6.7-99.3,20c-30.4,12.8-57.6,31.2-81.1,54.6S33.9,126.4,21,156.7C7.7,188.2,1,221.6,1,256s6.7,67.8,20,99.3
		c12.8,30.4,31.2,57.6,54.6,81.1s50.7,41.8,81.1,54.6c31.4,13.3,64.8,20,99.3,20s67.8-6.7,99.3-20c30.4-12.8,57.6-31.2,81.1-54.6
		s41.8-50.7,54.6-81.1c13.3-31.4,20-64.8,20-99.3c0-34.5-6.7-67.8-20-99.3c-12.8-30.4-31.2-57.6-54.6-81.1S385.6,33.9,355.3,21
		C323.8,7.7,290.4,1,256,1L256,1z M347.4,128.3c-11.8-31-27.7-60.1-47.4-86.7c20.4,4.1,40,11.2,58.4,21
		c19.8,10.5,37.7,23.9,53.4,39.9C391.5,113.2,369.8,121.9,347.4,128.3L347.4,128.3z M164.4,128.1c-22.3-6.3-43.8-14.9-64.3-25.8
		c15.7-15.9,33.7-29.3,53.4-39.8c18.4-9.8,38-16.8,58.3-20.9C192,68.2,176,97.2,164.4,128.1L164.4,128.1z M242.6,140.7
		c-17.1-0.7-34.5-2.8-51.8-6.2c12.5-32,29.9-61.8,51.8-88.6V140.7L242.6,140.7z M269.5,140.7V46c21.7,26.7,39.1,56.4,51.6,88.6
		C304.3,137.9,286.9,140,269.5,140.7L269.5,140.7z M370.5,242.5c-1.1-30-6-59.9-14.4-88.8c25.8-7.4,50.6-17.7,73.9-30.6
		c26.6,34.8,41.9,75.9,44.5,119.4H370.5L370.5,242.5z M37.5,242.6v-0.1c1.3-21.8,5.9-43.1,13.6-63.5c7.5-20,18-38.7,31-55.8
		c23.5,12.9,48.2,23.2,73.7,30.5c-8.5,28.8-13.4,58.6-14.5,88.9H37.5L37.5,242.6z M269.5,167.6c20.3-0.7,40.6-3.2,60.5-7.4
		c8,26.9,12.6,54.5,13.7,82.3h-74.1v-74.9H269.5L269.5,167.6z M168.3,242.6c1.1-28.2,5.7-55.8,13.7-82.4c19.9,4.2,40.3,6.7,60.7,7.4
		v75H168.3L168.3,242.6z M429.8,388.8c-23.4-12.9-48.2-23.1-73.9-30.6c8.5-28.7,13.4-58.6,14.5-88.8h103.9
		C471.8,312.9,456.5,354,429.8,388.8L429.8,388.8z M329.9,351.8c-19.9-4.1-40.2-6.6-60.5-7.4v-75h0.1h74.1
		C342.5,297.5,337.9,325.1,329.9,351.8L329.9,351.8z M181.9,351.8c-7.9-26.5-12.5-54.2-13.6-82.4h74.3v75
		C222.6,345.1,202.3,347.6,181.9,351.8L181.9,351.8z M82.1,388.8c-13-17-23.5-35.7-31-55.7c-7.7-20.5-12.2-41.9-13.6-63.7h103.8
		c1.1,30.2,6,60.1,14.5,88.9C130,365.8,105.2,376,82.1,388.8L82.1,388.8z M242.6,466c-21.8-26.8-39.2-56.6-51.8-88.6
		c17.2-3.4,34.6-5.5,51.8-6.1V466L242.6,466z M269.5,466.1v-94.7c17.4,0.7,34.8,2.7,51.6,6.1C308.6,409.7,291.2,439.4,269.5,466.1
		L269.5,466.1z M300.1,470.4c19.7-26.5,35.6-55.6,47.4-86.6c22.3,6.3,43.9,15,64.5,25.8c-15.8,16-33.7,29.4-53.5,39.9
		C340,459.2,320.4,466.3,300.1,470.4L300.1,470.4z M211.9,470.3c-20.3-4.1-39.9-11.1-58.3-20.9c-19.8-10.5-37.7-23.9-53.5-39.8
		c20.5-10.8,42.1-19.5,64.3-25.8C176.1,414.7,192.1,443.7,211.9,470.3L211.9,470.3z"/>
</g>
</svg>
