<svg id="location" xmlns="http://www.w3.org/2000/svg" width="17.251" height="23" viewBox="0 0 17.251 23">
  <path id="Path_3" data-name="Path 3" d="M15.092,15.406a4.971,4.971,0,0,0,5.09-4.83,4.971,4.971,0,0,0-5.09-4.83A4.97,4.97,0,0,0,10,10.576,4.97,4.97,0,0,0,15.092,15.406Zm0-8.855a4.141,4.141,0,0,1,4.242,4.025A4.141,4.141,0,0,1,15.092,14.6a4.141,4.141,0,0,1-4.242-4.025A4.141,4.141,0,0,1,15.092,6.551Z" transform="translate(-6.466 -1.291)" fill="#fff" fill-rule="evenodd"/>
  <path id="Path_4" data-name="Path 4" d="M12.625,0A8.6,8.6,0,0,0,4,8.626c0,5.031,4.313,10.178,7.458,13.8A1.756,1.756,0,0,0,12.6,23h.055a1.759,1.759,0,0,0,1.14-.579c3.146-3.617,7.458-8.764,7.458-13.8A8.6,8.6,0,0,0,12.625,0Zm.084,21.478a.872.872,0,0,1-.1.07.718.718,0,0,0-.093-.1C9.885,18.422,5.438,13.307,5.438,8.626a7.188,7.188,0,1,1,14.376,0C19.814,13.307,15.366,18.422,12.709,21.478Z" transform="translate(-4)" fill="#fff" fill-rule="evenodd"/>
</svg>
