<svg xmlns="http://www.w3.org/2000/svg" width="20" height="20.816" viewBox="0 0 20 20.816">
  <path id="Path_2" data-name="Path 2" d="M250.692,72.149a7.774,7.774,0,0,0-1.878-2.669,8.745,8.745,0,0,0-2.931-1.769,11.583,11.583,0,0,0-6.755-.258,10.554,10.554,0,0,0-2.573,1.087,10.275,10.275,0,0,0-2.154,1.7,10.5,10.5,0,0,0-1.645,2.227,11.206,11.206,0,0,0-1.041,2.669,12.175,12.175,0,0,0-.364,3.008,10.6,10.6,0,0,0,.747,4.092,8.256,8.256,0,0,0,2.159,3.064A9.6,9.6,0,0,0,237.7,87.22a14.728,14.728,0,0,0,4.6.666,15.149,15.149,0,0,0,2.694-.221,11.212,11.212,0,0,0,2.4-.72l-.641-1.545a9.691,9.691,0,0,1-2.046.608,13.13,13.13,0,0,1-2.435.208,12.81,12.81,0,0,1-3.861-.539,7.97,7.97,0,0,1-2.881-1.576,6.827,6.827,0,0,1-1.807-2.537,8.789,8.789,0,0,1-.629-3.42,10.049,10.049,0,0,1,.666-3.678,9.179,9.179,0,0,1,1.851-2.977,8.607,8.607,0,0,1,2.831-2,8.812,8.812,0,0,1,3.6-.729,8.7,8.7,0,0,1,3.02.51,7.256,7.256,0,0,1,2.386,1.405,6.455,6.455,0,0,1,1.563,2.127,6.37,6.37,0,0,1,.564,2.687,8.693,8.693,0,0,1-.333,2.5,6.032,6.032,0,0,1-.9,1.878,4.035,4.035,0,0,1-1.318,1.174,3.293,3.293,0,0,1-1.594.408.639.639,0,0,1-.527-.2.87.87,0,0,1-.164-.566,3.537,3.537,0,0,1,.083-.7c.054-.271.119-.629.194-.989l1.619-7.246h-2l-.239,1.07a4.081,4.081,0,0,0-1.368-.972,4.425,4.425,0,0,0-1.794-.329,4.659,4.659,0,0,0-2.211.558,5.908,5.908,0,0,0-1.828,1.528,7.5,7.5,0,0,0-1.236,2.306,8.969,8.969,0,0,0-.452,2.887,5.619,5.619,0,0,0,.289,1.878,4.057,4.057,0,0,0,.8,1.395,3.362,3.362,0,0,0,1.237.866,4.23,4.23,0,0,0,3.485-.171,5.22,5.22,0,0,0,1.62-1.318,1.868,1.868,0,0,0,.212.7,1.828,1.828,0,0,0,.47.564,2.271,2.271,0,0,0,.685.377,2.458,2.458,0,0,0,.841.139,5.786,5.786,0,0,0,2.467-.529,5.57,5.57,0,0,0,1.965-1.524,7.215,7.215,0,0,0,1.293-2.442,10.674,10.674,0,0,0,.466-3.279A8.337,8.337,0,0,0,250.692,72.149Zm-7.54,6a5.521,5.521,0,0,1-.5,1.374,4.428,4.428,0,0,1-.76,1.043,3.154,3.154,0,0,1-.96.664,2.665,2.665,0,0,1-1.093.233q-2.161,0-2.159-2.725a7.394,7.394,0,0,1,.293-2.109,6.51,6.51,0,0,1,.785-1.734,4.109,4.109,0,0,1,1.137-1.172,2.386,2.386,0,0,1,1.349-.435,3.441,3.441,0,0,1,1.619.352,3.844,3.844,0,0,1,1.105.853Z" transform="translate(-231.352 -67.07)" fill="#fff"/>
</svg>
