<svg xmlns="http://www.w3.org/2000/svg" width="20" height="20" viewBox="0 0 20 20">
  <path id="Path_1" data-name="Path 1" d="M246.134,65.017a1.12,1.12,0,0,0-1.138.006l-1.78,1.06a1.113,1.113,0,0,1-1.26-.074,29.057,29.057,0,0,1-2.532-2.208,28.717,28.717,0,0,1-2.208-2.532,1.114,1.114,0,0,1-.076-1.26l1.06-1.78a1.118,1.118,0,0,0,0-1.142l-2.61-4.458a1.127,1.127,0,0,0-1.242-.526,3.709,3.709,0,0,0-1.728,1.04c-2.012,2.012-3.08,5.406,4.486,12.972s10.959,6.5,12.973,4.486a3.708,3.708,0,0,0,1.04-1.732,1.123,1.123,0,0,0-.522-1.236C249.525,67,247.208,65.647,246.134,65.017Z" transform="translate(-231.155 -52.071)" fill="#fff"/>
</svg>
